<svg width="202" height="36" viewBox="0 0 202 36" fill="none" xmlns="http://www.w3.org/2000/svg">
<path fill-rule="evenodd" clip-rule="evenodd" d="M81.5999 14.0595C83.9164 15.2433 83.9063 15.1987 82.4818 17.9532C81.2382 20.3591 80.8995 20.4571 78.9404 18.975C76.9936 17.5022 74.7419 17.655 72.5104 19.4109C69.8286 21.5199 69.8286 25.843 72.5104 27.952C76.4596 31.0589 78.8215 29.793 83.3515 22.1431C85.5995 18.3467 87.7892 15.636 89.5624 14.4558C96.7721 9.65852 106.643 14.9494 106.635 23.608C106.63 29.9486 102.024 34.4815 95.581 34.4865C92.2673 34.4894 87.9045 32.75 87.9045 31.4264C87.9045 30.9516 89.4868 28.1019 90.5762 26.6162C90.7002 26.4468 91.2038 26.8482 91.6945 27.5075C93.2933 29.6525 96.7764 29.8023 99.0756 27.8252C101.845 25.4424 101.878 21.9493 99.1527 19.6047C95.1343 16.1476 92.4251 17.5937 87.7064 25.7148C83.7903 32.4539 80.7821 34.7408 75.9264 34.6674C69.7919 34.5744 64.8476 29.7692 64.8476 23.8991C64.8476 15.0596 73.5516 9.94674 81.5999 14.0595Z" fill="white"/>
<path d="M35.4179 35.4284C32.4061 35.4284 30.3295 34.5407 29.1882 32.7653C28.0786 30.99 27.5238 28.5171 27.5238 25.3468V13.1252H32.6597V24.0628C32.6597 25.8699 32.7548 27.2807 32.9451 28.2952C33.167 29.278 33.5791 30.0072 34.1815 30.4827C34.8156 30.9583 35.7508 31.196 36.9872 31.196C37.8749 31.196 38.7309 30.9424 39.5552 30.4352C40.3795 29.9279 41.0452 29.2463 41.5525 28.3903C42.0915 27.5026 42.3609 26.5357 42.3609 25.4894V13.1252H47.4493V34.9529H43.2645L42.6938 31.7667C41.9012 33.0031 40.9026 33.9225 39.6979 34.5249C38.5248 35.1272 37.0982 35.4284 35.4179 35.4284Z" fill="white"/>
<path d="M53.5679 17.31H50.437V13.1252H53.5679V4.2324L58.7514 4.23239V13.1252L62.686 13.1252V17.31L58.7514 17.31V34.9529H53.5679V17.31Z" fill="white"/>
<path d="M108.797 13.1251H113.838L113.885 17.1198C114.488 15.7882 115.439 14.6945 116.739 13.8385C118.038 12.9825 119.56 12.5545 121.304 12.5545C123.555 12.5545 125.283 13.03 126.487 13.9811C127.692 14.9005 128.501 16.2004 128.913 17.8806C129.325 19.5609 129.531 21.7484 129.531 24.4432V34.9528H124.395V24.5859C124.395 21.8277 124.125 19.8462 123.587 18.6415C123.048 17.4051 121.938 16.7869 120.258 16.7869C119.307 16.7869 118.34 17.0881 117.357 17.6904C116.374 18.2611 115.55 19.1012 114.884 20.2108C114.25 21.3204 113.933 22.6203 113.933 24.1103V34.9528H108.797V13.1251Z" fill="white"/>
<path d="M133.963 0H139.051V34.9528H133.963V0Z" fill="white"/>
<path d="M144.024 13.1251H149.35V34.9528H144.024V13.1251ZM146.64 9.03543C145.657 9.03543 144.833 8.70254 144.167 8.03677C143.501 7.37101 143.168 6.54672 143.168 5.56392C143.168 4.67623 143.501 3.91535 144.167 3.28129C144.833 2.64722 145.657 2.33019 146.64 2.33019C147.591 2.33019 148.399 2.64722 149.065 3.28129C149.731 3.91535 150.064 4.67623 150.064 5.56392C150.064 6.54672 149.731 7.37101 149.065 8.03677C148.431 8.70254 147.623 9.03543 146.64 9.03543Z" fill="white"/>
<path d="M153.846 13.1251H158.887L158.934 17.1198C159.537 15.7882 160.488 14.6945 161.788 13.8385C163.087 12.9825 164.609 12.5545 166.353 12.5545C168.604 12.5545 170.332 13.03 171.536 13.9811C172.741 14.9005 173.549 16.2004 173.962 17.8806C174.374 19.5609 174.58 21.7484 174.58 24.4432V34.9528H169.444V24.5859C169.444 21.8277 169.174 19.8462 168.635 18.6415C168.097 17.4051 166.987 16.7869 165.307 16.7869C164.356 16.7869 163.389 17.0881 162.406 17.6904C161.423 18.2611 160.599 19.1012 159.933 20.2108C159.299 21.3204 158.982 22.6203 158.982 24.1103V34.9528H153.846V13.1251Z" fill="white"/>
<path d="M18.6675 13.1252V15.5087C20.921 17.552 22.3364 20.5031 22.3364 23.7847C22.3364 27.0431 20.9409 29.9757 18.715 32.0173V34.9529H23.5656V13.1252H18.6675Z" fill="white"/>
<path fill-rule="evenodd" clip-rule="evenodd" d="M18.715 32.0173C20.9409 29.9757 22.3364 27.0431 22.3364 23.7847C22.3364 20.5031 20.921 17.552 18.6675 15.5087C18.5384 15.3917 18.4066 15.2777 18.2722 15.1668C16.3417 13.5735 13.8667 12.6165 11.1682 12.6165C5.00017 12.6165 0 17.6167 0 23.7847C0 29.9527 5.00017 34.9529 11.1682 34.9529C14.0778 34.9529 16.7274 33.8403 18.715 32.0173ZM11.1682 29.9092C14.5507 29.9092 17.2927 27.1671 17.2927 23.7847C17.2927 20.4022 14.5507 17.6602 11.1682 17.6602C7.78573 17.6602 5.0437 20.4022 5.0437 23.7847C5.0437 27.1671 7.78573 29.9092 11.1682 29.9092Z" fill="white"/>
<path d="M189.859 35.6734C183.293 35.6734 177.97 30.3506 177.97 23.7847C177.97 17.2187 183.293 11.8959 189.859 11.8959C196.425 11.8959 201.748 17.2187 201.748 23.7847C201.748 24.65 201.655 25.4937 201.48 26.3065H196.225C196.534 25.5261 196.704 24.6752 196.704 23.7847C196.704 23.1612 196.621 22.5573 196.465 21.9833C195.674 19.0768 193.016 16.9396 189.859 16.9396C186.702 16.9396 184.044 19.0768 183.254 21.9833C183.098 22.5573 183.014 23.1612 183.014 23.7847C183.014 24.6752 183.184 25.5261 183.494 26.3065C184.498 28.8389 186.969 30.6297 189.859 30.6297C191.828 30.6297 193.602 29.7986 194.851 28.4681H200.79C198.972 32.7054 194.762 35.6734 189.859 35.6734Z" fill="white"/>
<path d="M196.225 26.3065C196.534 25.5261 196.704 24.6752 196.704 23.7847C196.704 23.1612 196.621 22.5573 196.465 21.9833H183.254C183.098 22.5573 183.014 23.1612 183.014 23.7847C183.014 24.6752 183.184 25.5261 183.494 26.3065H196.225Z" fill="white"/>
</svg>
